<?xml version="1.0" encoding="utf-8"?>
<!-- Generator: Adobe Illustrator 28.0.0, SVG Export Plug-In . SVG Version: 6.00 Build 0)  -->
<svg version="1.1" xmlns="http://www.w3.org/2000/svg" xmlns:xlink="http://www.w3.org/1999/xlink" x="0px" y="0px"
	 viewBox="0 0 334.9 140.8" style="enable-background:new 0 0 334.9 140.8;" xml:space="preserve">
<style type="text/css">
	.st0{fill-rule:evenodd;clip-rule:evenodd;fill:#48C7CE;}
	.st1{fill-rule:evenodd;clip-rule:evenodd;fill:#160D06;}
	.st2{fill-rule:evenodd;clip-rule:evenodd;fill:#FEFEFE;}
	.st3{fill-rule:evenodd;clip-rule:evenodd;fill:#F36242;}
	.st4{fill-rule:evenodd;clip-rule:evenodd;}
	.st5{fill-rule:evenodd;clip-rule:evenodd;fill:#FEFEFE;stroke:#FEFEFE;stroke-width:0.3271;stroke-miterlimit:2.6131;}
	.st6{fill-rule:evenodd;clip-rule:evenodd;fill:#F3F3F1;}
	.st7{fill-rule:evenodd;clip-rule:evenodd;fill:url(#SVGID_1_);}
	.st8{fill-rule:evenodd;clip-rule:evenodd;fill:url(#SVGID_00000075875455258924813880000018162964190326918301_);}
	.st9{fill-rule:evenodd;clip-rule:evenodd;fill:url(#SVGID_00000060021085405117280690000010684706906902763679_);}
	.st10{fill-rule:evenodd;clip-rule:evenodd;fill:url(#SVGID_00000010284600145572166930000009244711857682024338_);}
	.st11{fill-rule:evenodd;clip-rule:evenodd;fill:url(#SVGID_00000093884205515664755570000017470079584404942998_);}
	.st12{fill-rule:evenodd;clip-rule:evenodd;fill:#FFFFFF;}
	.st13{fill-rule:evenodd;clip-rule:evenodd;fill:#E8EDF0;}
</style>
<g id="Layer_1">
	<path class="st0" d="M7.4,6.6H279c26.7,0,48.5,21.8,48.5,48.5v79.1H55.4c-26.4,0-48-21.6-48-48V6.6z"/>
	<path class="st1" d="M173.1,6.6H279c25.9,0,47.3,20.6,48.4,46.3v24c0,7-5.7,12.7-12.7,12.7H186.5c-7.4,0-13.5-6.1-13.5-13.5V6.6z"
		/>
	<rect x="159.5" y="48.6" class="st2" width="7.1" height="31"/>
	<path class="st3" d="M166.6,49.7v2.7h-7.1v-2.7H166.6L166.6,49.7z M166.6,54.5v2.7h-7.1v-2.7H166.6L166.6,54.5z M166.6,59.3V62
		h-7.1v-2.7H166.6L166.6,59.3z M166.6,64.1v2.7h-7.1v-2.7H166.6L166.6,64.1z M166.6,68.9v2.7h-7.1v-2.7H166.6L166.6,68.9z
		 M166.6,73.7v2.7h-7.1v-2.7H166.6z"/>
	<path class="st4" d="M33.3,79.6c-2.8,0-5.4-0.6-7.7-1.9c-2.3-1.3-4.1-3-5.4-5.2c-1.3-2.2-1.9-4.7-1.9-7.5c0-2.8,0.6-5.3,1.9-7.5
		c1.3-2.2,3.1-4,5.4-5.2c2.3-1.3,4.9-1.9,7.7-1.9c2.8,0,5.4,0.6,7.7,1.9c2.3,1.3,4.1,3,5.4,5.2c1.3,2.2,2,4.7,2,7.5
		c0,2.8-0.7,5.3-2,7.5c-1.3,2.2-3.1,4-5.4,5.2C38.7,78.9,36.1,79.6,33.3,79.6L33.3,79.6z M33.3,76.8c2.3,0,4.3-0.5,6.2-1.5
		c1.8-1,3.3-2.4,4.3-4.3c1-1.8,1.6-3.9,1.6-6.1c0-2.2-0.5-4.3-1.6-6.1c-1-1.8-2.5-3.2-4.3-4.3c-1.8-1-3.9-1.5-6.2-1.5
		s-4.3,0.5-6.2,1.5c-1.8,1-3.3,2.4-4.4,4.3c-1.1,1.8-1.6,3.9-1.6,6.1c0,2.2,0.5,4.3,1.6,6.1c1.1,1.8,2.5,3.2,4.4,4.3
		C29,76.3,31,76.8,33.3,76.8L33.3,76.8z M70.3,50.6c3.7,0,6.5,0.9,8.6,2.6C81,55,82,57.4,82,60.4c0,3.1-1,5.5-3.1,7.2
		c-2.1,1.7-5,2.6-8.6,2.6h-7.7v9.1h-3V50.6H70.3L70.3,50.6z M70.2,67.6c2.8,0,5-0.6,6.5-1.9c1.5-1.2,2.3-3,2.3-5.3
		c0-2.3-0.8-4.1-2.3-5.4c-1.5-1.2-3.7-1.9-6.5-1.9h-7.6v14.4H70.2L70.2,67.6z M109.5,71.6h-16L90,79.3h-3.2L100,50.6h3l13.1,28.7
		h-3.2L109.5,71.6L109.5,71.6z M108.4,69.2l-6.9-15.4l-6.9,15.4H108.4L108.4,69.2z M137.3,79.6c-2.8,0-5.4-0.6-7.7-1.9
		c-2.3-1.3-4.1-3-5.4-5.2c-1.3-2.2-1.9-4.7-1.9-7.5c0-2.8,0.7-5.3,1.9-7.5c1.3-2.2,3.1-4,5.4-5.2c2.3-1.3,4.9-1.9,7.7-1.9
		c2.1,0,4.1,0.4,5.9,1.1c1.8,0.7,3.3,1.8,4.6,3.1l-1.9,1.9c-2.2-2.3-5.1-3.4-8.5-3.4c-2.3,0-4.3,0.5-6.2,1.6c-1.9,1-3.3,2.5-4.4,4.3
		c-1.1,1.8-1.6,3.8-1.6,6.1c0,2.2,0.5,4.3,1.6,6.1c1.1,1.8,2.5,3.2,4.4,4.3c1.9,1,3.9,1.6,6.2,1.6c3.4,0,6.3-1.1,8.5-3.4l1.9,1.9
		c-1.3,1.4-2.8,2.4-4.6,3.1C141.4,79.2,139.4,79.6,137.3,79.6z"/>
	<path class="st2" d="M196.1,50.6H186V48h23.2v2.6h-10.1v26.1h-3V50.6L196.1,50.6z M230.2,77c-2.8,0-5.4-0.6-7.7-1.9
		c-2.3-1.3-4.1-3-5.4-5.2c-1.3-2.2-1.9-4.7-1.9-7.5c0-2.8,0.6-5.3,1.9-7.5c1.3-2.2,3.1-4,5.4-5.2c2.3-1.3,4.9-1.9,7.7-1.9
		c2.8,0,5.4,0.6,7.7,1.9c2.3,1.3,4.1,3,5.4,5.2c1.3,2.2,2,4.7,2,7.5c0,2.8-0.7,5.3-2,7.5c-1.3,2.2-3.1,4-5.4,5.2
		C235.6,76.3,233.1,77,230.2,77L230.2,77z M230.2,74.2c2.3,0,4.3-0.5,6.2-1.5c1.8-1,3.3-2.4,4.3-4.3c1-1.8,1.6-3.9,1.6-6.1
		c0-2.2-0.5-4.3-1.6-6.1c-1-1.8-2.5-3.2-4.3-4.3c-1.8-1-3.9-1.5-6.2-1.5c-2.3,0-4.3,0.5-6.2,1.5c-1.8,1-3.3,2.4-4.4,4.3
		c-1.1,1.8-1.6,3.9-1.6,6.1c0,2.2,0.5,4.3,1.6,6.1c1.1,1.8,2.5,3.2,4.4,4.3C225.9,73.7,227.9,74.2,230.2,74.2L230.2,74.2z M268.7,77
		c-2.8,0-5.4-0.6-7.7-1.9c-2.3-1.3-4.1-3-5.4-5.2c-1.3-2.2-1.9-4.7-1.9-7.5c0-2.8,0.7-5.3,1.9-7.5c1.3-2.2,3.1-4,5.4-5.2
		c2.3-1.3,4.9-1.9,7.7-1.9c2.8,0,5.4,0.6,7.7,1.9c2.3,1.3,4.1,3,5.4,5.2c1.3,2.2,2,4.7,2,7.5c0,2.8-0.7,5.3-2,7.5
		c-1.3,2.2-3.1,4-5.4,5.2C274.1,76.3,271.5,77,268.7,77L268.7,77z M268.7,74.2c2.3,0,4.3-0.5,6.2-1.5c1.8-1,3.3-2.4,4.3-4.3
		c1-1.8,1.6-3.9,1.6-6.1c0-2.2-0.5-4.3-1.6-6.1c-1-1.8-2.5-3.2-4.3-4.3c-1.8-1-3.9-1.5-6.2-1.5c-2.3,0-4.3,0.5-6.2,1.5
		c-1.8,1-3.3,2.4-4.4,4.3c-1.1,1.8-1.6,3.9-1.6,6.1c0,2.2,0.5,4.3,1.6,6.1c1.1,1.8,2.5,3.2,4.4,4.3
		C264.3,73.7,266.4,74.2,268.7,74.2L268.7,74.2z M294.6,48h3v26.1h16.1v2.6h-19.1V48z"/>
	<path class="st5" d="M78.3,113.7c-0.8,0-1.6-0.2-2.3-0.6c-0.7-0.4-1.2-0.9-1.6-1.5c-0.4-0.7-0.6-1.4-0.6-2.2c0-0.8,0.2-1.5,0.6-2.2
		c0.4-0.7,0.9-1.2,1.6-1.5c0.7-0.4,1.4-0.6,2.3-0.6c0.8,0,1.6,0.2,2.3,0.6c0.7,0.4,1.2,0.9,1.6,1.5c0.4,0.7,0.6,1.4,0.6,2.2
		c0,0.8-0.2,1.6-0.6,2.2c-0.4,0.7-0.9,1.2-1.6,1.5C79.9,113.5,79.1,113.7,78.3,113.7L78.3,113.7z M78.3,112.4c0.6,0,1.1-0.1,1.5-0.4
		c0.4-0.2,0.8-0.6,1-1c0.3-0.4,0.4-0.9,0.4-1.5s-0.1-1.1-0.4-1.5c-0.3-0.4-0.6-0.8-1-1c-0.4-0.2-0.9-0.4-1.5-0.4
		c-0.6,0-1.1,0.1-1.5,0.4c-0.4,0.2-0.8,0.6-1,1c-0.3,0.4-0.4,0.9-0.4,1.5s0.1,1.1,0.4,1.5c0.3,0.4,0.6,0.8,1,1
		C77.2,112.2,77.7,112.4,78.3,112.4L78.3,112.4z M88.1,105.3c0.7,0,1.4,0.1,1.9,0.4c0.5,0.2,0.9,0.6,1.2,1c0.3,0.4,0.4,1,0.4,1.6
		c0,0.6-0.1,1.1-0.4,1.6c-0.3,0.4-0.7,0.8-1.2,1c-0.5,0.2-1.2,0.4-1.9,0.4h-1.9v2.4h-1.5v-8.3H88.1L88.1,105.3z M88,109.9
		c0.7,0,1.2-0.1,1.5-0.4c0.3-0.3,0.5-0.7,0.5-1.2c0-0.5-0.2-0.9-0.5-1.2c-0.3-0.3-0.9-0.4-1.5-0.4h-1.8v3.3H88L88,109.9z
		 M98.5,111.7h-4.2l-0.8,1.9h-1.6l3.7-8.3h1.5l3.8,8.3h-1.6L98.5,111.7L98.5,111.7z M98,110.5l-1.6-3.6l-1.6,3.6H98L98,110.5z
		 M106,113.7c-0.8,0-1.6-0.2-2.3-0.6c-0.7-0.4-1.2-0.9-1.6-1.5c-0.4-0.7-0.6-1.4-0.6-2.2c0-0.8,0.2-1.6,0.6-2.2
		c0.4-0.7,0.9-1.2,1.6-1.5c0.7-0.4,1.4-0.6,2.3-0.6c0.7,0,1.3,0.1,1.9,0.4c0.6,0.2,1,0.6,1.4,1l-1,0.9c-0.6-0.7-1.3-1-2.2-1
		c-0.6,0-1.1,0.1-1.5,0.4c-0.5,0.2-0.8,0.6-1.1,1c-0.3,0.4-0.4,0.9-0.4,1.5c0,0.6,0.1,1.1,0.4,1.5c0.3,0.4,0.6,0.8,1.1,1
		c0.5,0.2,1,0.4,1.5,0.4c0.9,0,1.6-0.3,2.2-1l1,1c-0.4,0.5-0.9,0.8-1.4,1C107.3,113.6,106.7,113.7,106,113.7L106,113.7z
		 M111.1,105.3h1.5v8.3h-1.5V105.3L111.1,105.3z M116.8,106.6H114v-1.3h7.1v1.3h-2.8v7h-1.5V106.6L116.8,106.6z M126,110.7v2.9h-1.5
		v-2.9l-3.3-5.4h1.7l2.4,4.1l2.5-4.1h1.5L126,110.7L126,110.7z M139.3,111.7h-4.2l-0.8,1.9h-1.6l3.7-8.3h1.5l3.8,8.3h-1.6
		L139.3,111.7L139.3,111.7z M138.7,110.5l-1.6-3.6l-1.6,3.6H138.7L138.7,110.5z M145.6,113.7c-0.6,0-1.3-0.1-1.9-0.3
		c-0.6-0.2-1.1-0.4-1.4-0.7l0.5-1.2c0.3,0.3,0.8,0.5,1.3,0.7c0.5,0.2,1,0.3,1.5,0.3c0.6,0,1.1-0.1,1.4-0.3c0.3-0.2,0.5-0.5,0.5-0.8
		c0-0.2-0.1-0.4-0.3-0.6c-0.2-0.2-0.4-0.3-0.6-0.4c-0.3-0.1-0.6-0.2-1.1-0.3c-0.6-0.2-1.1-0.3-1.5-0.5c-0.4-0.2-0.7-0.4-1-0.7
		c-0.3-0.3-0.4-0.8-0.4-1.3c0-0.5,0.1-0.9,0.4-1.3c0.2-0.4,0.6-0.7,1.1-0.9c0.5-0.2,1.1-0.3,1.8-0.3c0.5,0,1,0.1,1.5,0.2
		c0.5,0.1,0.9,0.3,1.3,0.5l-0.5,1.2c-0.4-0.2-0.7-0.4-1.1-0.5c-0.4-0.1-0.8-0.2-1.2-0.2c-0.6,0-1.1,0.1-1.4,0.3
		c-0.3,0.2-0.4,0.5-0.4,0.8c0,0.2,0.1,0.4,0.3,0.6c0.2,0.2,0.4,0.3,0.6,0.4c0.3,0.1,0.6,0.2,1.1,0.3c0.6,0.1,1.1,0.3,1.5,0.4
		c0.4,0.2,0.7,0.4,1,0.7c0.3,0.3,0.4,0.7,0.4,1.3c0,0.5-0.1,0.9-0.4,1.2c-0.2,0.4-0.6,0.7-1.1,0.9
		C147,113.6,146.3,113.7,145.6,113.7L145.6,113.7z M153.4,113.7c-0.6,0-1.3-0.1-1.9-0.3c-0.6-0.2-1.1-0.4-1.4-0.7l0.5-1.2
		c0.3,0.3,0.8,0.5,1.3,0.7c0.5,0.2,1,0.3,1.5,0.3c0.6,0,1.1-0.1,1.4-0.3c0.3-0.2,0.5-0.5,0.5-0.8c0-0.2-0.1-0.4-0.3-0.6
		c-0.2-0.2-0.4-0.3-0.6-0.4c-0.3-0.1-0.6-0.2-1.1-0.3c-0.6-0.2-1.1-0.3-1.5-0.5c-0.4-0.2-0.7-0.4-1-0.7c-0.3-0.3-0.4-0.8-0.4-1.3
		c0-0.5,0.1-0.9,0.4-1.3c0.2-0.4,0.6-0.7,1.1-0.9c0.5-0.2,1.1-0.3,1.8-0.3c0.5,0,1,0.1,1.5,0.2c0.5,0.1,0.9,0.3,1.3,0.5l-0.5,1.2
		c-0.4-0.2-0.7-0.4-1.1-0.5c-0.4-0.1-0.8-0.2-1.2-0.2c-0.6,0-1.1,0.1-1.4,0.3c-0.3,0.2-0.4,0.5-0.4,0.8c0,0.2,0.1,0.4,0.3,0.6
		c0.2,0.2,0.4,0.3,0.6,0.4c0.3,0.1,0.6,0.2,1.1,0.3c0.6,0.1,1.1,0.3,1.5,0.4c0.4,0.2,0.7,0.4,1,0.7s0.4,0.7,0.4,1.3
		c0,0.5-0.1,0.9-0.4,1.2c-0.2,0.4-0.6,0.7-1.1,0.9C154.7,113.6,154.1,113.7,153.4,113.7L153.4,113.7z M164.8,112.3v1.3h-6.2v-8.3
		h6.1v1.3h-4.5v2.2h4v1.3h-4v2.3H164.8L164.8,112.3z M169.4,113.7c-0.6,0-1.3-0.1-1.9-0.3c-0.6-0.2-1.1-0.4-1.4-0.7l0.5-1.2
		c0.3,0.3,0.8,0.5,1.3,0.7c0.5,0.2,1,0.3,1.5,0.3c0.6,0,1.1-0.1,1.4-0.3c0.3-0.2,0.5-0.5,0.5-0.8c0-0.2-0.1-0.4-0.3-0.6
		c-0.2-0.2-0.4-0.3-0.6-0.4c-0.3-0.1-0.6-0.2-1.1-0.3c-0.6-0.2-1.1-0.3-1.5-0.5c-0.4-0.2-0.7-0.4-1-0.7c-0.3-0.3-0.4-0.8-0.4-1.3
		c0-0.5,0.1-0.9,0.4-1.3c0.2-0.4,0.6-0.7,1.1-0.9c0.5-0.2,1.1-0.3,1.8-0.3c0.5,0,1,0.1,1.5,0.2c0.5,0.1,0.9,0.3,1.3,0.5l-0.5,1.2
		c-0.4-0.2-0.7-0.4-1.1-0.5c-0.4-0.1-0.8-0.2-1.2-0.2c-0.6,0-1.1,0.1-1.4,0.3c-0.3,0.2-0.4,0.5-0.4,0.8c0,0.2,0.1,0.4,0.3,0.6
		c0.2,0.2,0.4,0.3,0.6,0.4c0.3,0.1,0.6,0.2,1.1,0.3c0.6,0.1,1.1,0.3,1.5,0.4c0.4,0.2,0.7,0.4,1,0.7c0.3,0.3,0.4,0.7,0.4,1.3
		c0,0.5-0.1,0.9-0.4,1.2c-0.2,0.4-0.6,0.7-1.1,0.9C170.7,113.6,170.1,113.7,169.4,113.7L169.4,113.7z M177.1,113.7
		c-0.6,0-1.3-0.1-1.9-0.3c-0.6-0.2-1.1-0.4-1.4-0.7l0.5-1.2c0.3,0.3,0.8,0.5,1.3,0.7c0.5,0.2,1,0.3,1.5,0.3c0.6,0,1.1-0.1,1.4-0.3
		c0.3-0.2,0.5-0.5,0.5-0.8c0-0.2-0.1-0.4-0.3-0.6c-0.2-0.2-0.4-0.3-0.6-0.4c-0.3-0.1-0.6-0.2-1.1-0.3c-0.6-0.2-1.1-0.3-1.5-0.5
		c-0.4-0.2-0.7-0.4-1-0.7c-0.3-0.3-0.4-0.8-0.4-1.3c0-0.5,0.1-0.9,0.4-1.3c0.2-0.4,0.6-0.7,1.1-0.9c0.5-0.2,1.1-0.3,1.8-0.3
		c0.5,0,1,0.1,1.5,0.2c0.5,0.1,0.9,0.3,1.3,0.5l-0.5,1.2c-0.4-0.2-0.7-0.4-1.1-0.5c-0.4-0.1-0.8-0.2-1.2-0.2c-0.6,0-1.1,0.1-1.4,0.3
		c-0.3,0.2-0.4,0.5-0.4,0.8c0,0.2,0.1,0.4,0.3,0.6c0.2,0.2,0.4,0.3,0.6,0.4c0.3,0.1,0.6,0.2,1.1,0.3c0.6,0.1,1.1,0.3,1.5,0.4
		c0.4,0.2,0.7,0.4,1,0.7c0.3,0.3,0.4,0.7,0.4,1.3c0,0.5-0.1,0.9-0.4,1.2c-0.2,0.4-0.6,0.7-1.1,0.9
		C178.5,113.6,177.9,113.7,177.1,113.7L177.1,113.7z M190,113.6l0-5.5l-2.7,4.6h-0.7l-2.7-4.5v5.4h-1.5v-8.3h1.3l3.3,5.5l3.2-5.5
		h1.3l0,8.3H190L190,113.6z M200.2,112.3v1.3h-6.2v-8.3h6.1v1.3h-4.5v2.2h4v1.3h-4v2.3H200.2L200.2,112.3z M209.6,105.3v8.3h-1.3
		l-4.6-5.6v5.6h-1.5v-8.3h1.3l4.6,5.6v-5.6H209.6L209.6,105.3z M213.8,106.6H211v-1.3h7.1v1.3h-2.8v7h-1.5V106.6L213.8,106.6z
		 M225.4,113.7c-0.6,0-1.3-0.1-1.9-0.3c-0.6-0.2-1.1-0.4-1.4-0.7l0.5-1.2c0.3,0.3,0.8,0.5,1.3,0.7c0.5,0.2,1,0.3,1.5,0.3
		c0.6,0,1.1-0.1,1.4-0.3c0.3-0.2,0.5-0.5,0.5-0.8c0-0.2-0.1-0.4-0.3-0.6c-0.2-0.2-0.4-0.3-0.6-0.4c-0.3-0.1-0.6-0.2-1.1-0.3
		c-0.6-0.2-1.1-0.3-1.5-0.5c-0.4-0.2-0.7-0.4-1-0.7c-0.3-0.3-0.4-0.8-0.4-1.3c0-0.5,0.1-0.9,0.4-1.3c0.2-0.4,0.6-0.7,1.1-0.9
		c0.5-0.2,1.1-0.3,1.8-0.3c0.5,0,1,0.1,1.5,0.2c0.5,0.1,0.9,0.3,1.3,0.5l-0.5,1.2c-0.4-0.2-0.7-0.4-1.1-0.5
		c-0.4-0.1-0.8-0.2-1.2-0.2c-0.6,0-1.1,0.1-1.4,0.3c-0.3,0.2-0.4,0.5-0.4,0.8c0,0.2,0.1,0.4,0.3,0.6c0.2,0.2,0.4,0.3,0.6,0.4
		c0.3,0.1,0.6,0.2,1.1,0.3c0.6,0.1,1.1,0.3,1.5,0.4c0.4,0.2,0.7,0.4,1,0.7c0.3,0.3,0.4,0.7,0.4,1.3c0,0.5-0.1,0.9-0.4,1.2
		c-0.2,0.4-0.6,0.7-1.1,0.9C226.7,113.6,226.1,113.7,225.4,113.7L225.4,113.7z M234,110.7v2.9h-1.5v-2.9l-3.3-5.4h1.7l2.4,4.1
		l2.5-4.1h1.5L234,110.7L234,110.7z M240.9,113.7c-0.6,0-1.3-0.1-1.9-0.3c-0.6-0.2-1.1-0.4-1.4-0.7l0.5-1.2c0.3,0.3,0.8,0.5,1.3,0.7
		c0.5,0.2,1,0.3,1.5,0.3c0.6,0,1.1-0.1,1.4-0.3c0.3-0.2,0.5-0.5,0.5-0.8c0-0.2-0.1-0.4-0.3-0.6c-0.2-0.2-0.4-0.3-0.6-0.4
		c-0.3-0.1-0.6-0.2-1.1-0.3c-0.6-0.2-1.1-0.3-1.5-0.5c-0.4-0.2-0.7-0.4-1-0.7c-0.3-0.3-0.4-0.8-0.4-1.3c0-0.5,0.1-0.9,0.4-1.3
		c0.2-0.4,0.6-0.7,1.1-0.9c0.5-0.2,1.1-0.3,1.8-0.3c0.5,0,1,0.1,1.5,0.2c0.5,0.1,0.9,0.3,1.3,0.5l-0.5,1.2c-0.4-0.2-0.7-0.4-1.1-0.5
		c-0.4-0.1-0.8-0.2-1.2-0.2c-0.6,0-1.1,0.1-1.4,0.3c-0.3,0.2-0.4,0.5-0.4,0.8c0,0.2,0.1,0.4,0.3,0.6c0.2,0.2,0.4,0.3,0.6,0.4
		c0.3,0.1,0.6,0.2,1.1,0.3c0.6,0.1,1.1,0.3,1.5,0.4c0.4,0.2,0.7,0.4,1,0.7c0.3,0.3,0.4,0.7,0.4,1.3c0,0.5-0.1,0.9-0.4,1.2
		c-0.2,0.4-0.6,0.7-1.1,0.9C242.3,113.6,241.7,113.7,240.9,113.7L240.9,113.7z M247.7,106.6h-2.8v-1.3h7.1v1.3h-2.8v7h-1.5V106.6
		L247.7,106.6z M259.7,112.3v1.3h-6.2v-8.3h6.1v1.3H255v2.2h4v1.3h-4v2.3H259.7L259.7,112.3z M269.3,113.6l0-5.5l-2.7,4.6h-0.7
		l-2.7-4.5v5.4h-1.5v-8.3h1.3l3.3,5.5l3.2-5.5h1.3l0,8.3H269.3z"/>
	<path class="st3" d="M7.4,5.3H279c13.7,0,26.1,5.6,35.2,14.6c9,9,14.6,21.5,14.6,35.2v80.4H55.4c-13.6,0-25.9-5.5-34.8-14.5
		c-8.9-8.9-14.5-21.2-14.5-34.8V5.3H7.4L7.4,5.3z M279,7.9H8.7v78.3c0,12.8,5.2,24.5,13.7,32.9c8.5,8.5,20.1,13.7,32.9,13.7h270.8
		V55.1c0-13-5.3-24.8-13.9-33.3C303.7,13.2,291.9,7.9,279,7.9z"/>
</g>
<g id="Layer_2">
	<path class="st6" d="M185.4,22.2c0-2.7-2.2-4.8-4.8-4.8c-1.8,0-3.4,1-4.2,2.5c-1-0.5-2.2-0.7-3.3-0.7c-4.5,0-8.1,3.6-8.1,8.1
		c0,2.3,1,4.4,2.5,5.8c-0.7,0.9-1.2,2-1.2,3.3c0,0.3,0,0.6,0.1,0.9c-1.8,0.2-3.3,1.7-3.3,3.5c0,0.6,0.1,1.1,0.4,1.6
		c-1,0.1-1.7,0.9-1.7,1.9c0,1.1,0.9,2,2,2c1.1,0,2-0.9,2-2c0,0,0-0.1,0-0.1c0.3,0.1,0.6,0.2,1,0.2c1.7,0,3.2-1.3,3.5-2.9
		c0.4,0.1,0.9,0.2,1.3,0.2c2.9,0,5.2-2.3,5.2-5.2c0-0.6-0.1-1.2-0.3-1.7c2.8-1.3,4.8-4.1,4.8-7.4c0-0.1,0-0.2,0-0.3
		C183.6,26.7,185.4,24.6,185.4,22.2z"/>
	<radialGradient id="SVGID_1_" cx="180.6653" cy="22.1625" r="4.651" gradientUnits="userSpaceOnUse">
		<stop  offset="0.8374" style="stop-color:#FFFFFF"/>
		<stop  offset="0.9548" style="stop-color:#F3F3F1"/>
	</radialGradient>
	<path class="st7" d="M184.6,22.2c0,2-1.5,3.7-3.6,4l-0.7,0.1l0.8,0.7c2.4-0.3,4.3-2.3,4.3-4.8c0-2.7-2.2-4.8-4.8-4.8
		c-1.8,0-3.3,1-4.2,2.5l0.3,1l0.4-0.7c0.7-1.3,2-2.1,3.5-2.1C182.8,18.1,184.6,20,184.6,22.2L184.6,22.2z"/>
	
		<radialGradient id="SVGID_00000029037499089632094860000006349944005593192091_" cx="173.0372" cy="27.1616" r="7.95" gradientUnits="userSpaceOnUse">
		<stop  offset="0.8792" style="stop-color:#FFFFFF"/>
		<stop  offset="0.996" style="stop-color:#F3F3F1"/>
	</radialGradient>
	<path style="fill-rule:evenodd;clip-rule:evenodd;fill:url(#SVGID_00000029037499089632094860000006349944005593192091_);" d="
		M176.4,34.6c2.8-1.3,4.8-4.1,4.8-7.4c0-0.1,0-0.2,0-0.3l-0.8-0.7l0,0.7v0.1c0,2.9-1.7,5.6-4.3,6.7l-0.7,0.3l0.1,0.2L176.4,34.6z
		 M165.8,27.2c0-4,3.3-7.3,7.3-7.3c1,0,2.1,0.2,3,0.7l0.7,0.3l-0.3-1c-1-0.5-2.2-0.7-3.3-0.7c-4.5,0-8.1,3.7-8.1,8.1
		c0,2.2,0.9,4.3,2.4,5.8h1.2l-0.5-0.5C166.6,31,165.8,29.2,165.8,27.2L165.8,27.2z"/>
	
		<radialGradient id="SVGID_00000026872109270878000000000001449666775785712785_" cx="171.4718" cy="36.3993" r="5.0185" gradientTransform="matrix(1 0 0 1.0021 0 -7.537106e-02)" gradientUnits="userSpaceOnUse">
		<stop  offset="0.8682" style="stop-color:#FFFFFF"/>
		<stop  offset="0.9703" style="stop-color:#F3F3F1"/>
	</radialGradient>
	<path style="fill-rule:evenodd;clip-rule:evenodd;fill:url(#SVGID_00000026872109270878000000000001449666775785712785_);" d="
		M175.9,36.3c0,2.4-2,4.4-4.4,4.4c-0.3,0-0.7-0.1-1.1-0.1l-0.8-0.2l0.6,1.1c0,0,0-0.1,0-0.1c0.4,0.1,0.9,0.2,1.3,0.2
		c2.9,0,5.2-2.4,5.2-5.2c0-0.6-0.1-1.2-0.3-1.7l-0.9-0.2l0.2,0.5C175.8,35.3,175.9,35.8,175.9,36.3L175.9,36.3z M167.1,36.3
		c0-1,0.4-2,1-2.8l0.5-0.6h-1.2c0,0,0.1,0.1,0.1,0.1c-0.8,0.9-1.2,2-1.2,3.3c0,0.3,0.1,0.6,0.1,0.9l0.9,0.7l-0.1-0.9
		C167.1,36.8,167.1,36.5,167.1,36.3L167.1,36.3z"/>
	
		<radialGradient id="SVGID_00000116232124931740919840000015070496609864458389_" cx="166.6026" cy="40.856" r="3.5434" gradientUnits="userSpaceOnUse">
		<stop  offset="0.8374" style="stop-color:#FFFFFF"/>
		<stop  offset="0.9548" style="stop-color:#F3F3F1"/>
	</radialGradient>
	<path style="fill-rule:evenodd;clip-rule:evenodd;fill:url(#SVGID_00000116232124931740919840000015070496609864458389_);" d="
		M166.4,37.2c-1.8,0.1-3.3,1.7-3.3,3.5c0,0.6,0.1,1.1,0.4,1.6l1.1,0.7l0.1,0l-0.5-1c-0.2-0.4-0.3-0.8-0.3-1.2c0-1.4,1.1-2.6,2.5-2.7
		l0.9-0.1L166.4,37.2z M169.4,41.2c-0.2,1.3-1.4,2.3-2.7,2.3c-0.2,0-0.5-0.1-0.8-0.1l-1.1-0.3l0.9,1.1c0.3,0.1,0.7,0.2,1,0.2
		c1.7,0,3.1-1.2,3.5-2.9l-0.6-1.1L169.4,41.2z"/>
	
		<radialGradient id="SVGID_00000113312034675063539590000011127033956085785233_" cx="163.7069" cy="44.2743" r="1.9601" gradientUnits="userSpaceOnUse">
		<stop  offset="0.6098" style="stop-color:#FFFFFF"/>
		<stop  offset="0.8591" style="stop-color:#F3F3F1"/>
	</radialGradient>
	<path style="fill-rule:evenodd;clip-rule:evenodd;fill:url(#SVGID_00000113312034675063539590000011127033956085785233_);" d="
		M162.6,44.2c0-0.6,0.5-1,1-1.1l1-0.1l-1.1-0.7c-1,0.1-1.7,0.9-1.7,1.9c0,1.1,0.9,2,2,2s2-0.9,2-2c0,0,0-0.1,0-0.1l-0.9-1.1l0.1,1.2
		v0.1c0,0.6-0.5,1.1-1.2,1.1C163.1,45.3,162.6,44.8,162.6,44.2L162.6,44.2z"/>
	<path class="st12" d="M163.7,45.3c-0.6,0-1.2-0.5-1.2-1.2c0-0.6,0.4-1.1,1-1.1l1.1-0.1l-0.5-1c-0.2-0.4-0.3-0.8-0.3-1.2
		c0-1.4,1.1-2.6,2.5-2.7l0.9-0.1l-0.1-0.9c0-0.2-0.1-0.5-0.1-0.7c0-1,0.4-2,1-2.8l0.5-0.6l-0.5-0.5c-1.4-1.4-2.2-3.3-2.2-5.2
		c0-4,3.3-7.3,7.3-7.3c1,0,2.1,0.2,3,0.7l0.7,0.3l0.4-0.6c0.7-1.3,2.1-2.1,3.5-2.1c2.2,0,4,1.8,4,4c0,2-1.5,3.7-3.6,4l-0.7,0.1
		l0,0.7l0,0.2c0,3-1.7,5.6-4.3,6.7l-0.7,0.3l0.2,0.7c0.2,0.5,0.3,1,0.3,1.4c0,2.4-2,4.4-4.4,4.4c-0.3,0-0.7-0.1-1.1-0.2l-0.8-0.2
		l-0.2,0.9c-0.2,1.3-1.4,2.3-2.7,2.3c-0.2,0-0.5,0-0.8-0.1l-1.1-0.3l0.1,1.2l0,0.1C164.9,44.8,164.4,45.3,163.7,45.3z"/>
	<g>
		<path class="st13" d="M177.9,26.2c0.9,0.7,2,1.2,3.2,1.4c0-0.1,0-0.3,0-0.4c0-0.1,0-0.2,0-0.2c-0.2,0-0.4,0-0.6,0
			C179.6,27,178.7,26.7,177.9,26.2z"/>
		<path class="st13" d="M175.8,22.2c0-0.9,0.2-1.7,0.6-2.4c-0.2-0.1-0.5-0.2-0.7-0.3c-0.1,0.5-0.2,1-0.2,1.6c0,0.9,0.2,1.7,0.5,2.5
			C175.9,23.1,175.8,22.7,175.8,22.2z"/>
	</g>
	<g>
		<path class="st13" d="M177.4,34c-0.8-1.2-2-2-3.4-2.3c1.1,0.6,2,1.6,2.4,2.8C176.7,34.4,177.1,34.2,177.4,34z"/>
		<path class="st13" d="M167.7,39.9c0.5,0.9,1.3,1.5,2.3,2c0.1-0.2,0.1-0.4,0.2-0.6C169.2,41.1,168.4,40.6,167.7,39.9z"/>
	</g>
</g>
</svg>
